<svg id="svg" version="1.1" xmlns="http://www.w3.org/2000/svg" xmlns:xlink="http://www.w3.org/1999/xlink" width="400" height="400" viewBox="0, 0, 400,400"><g id="svgg"><path id="path0" d="M208.239 43.018 C 207.899 43.358,207.424 44.393,207.183 45.318 C 206.942 46.243,206.198 48.890,205.529 51.200 C 204.861 53.510,204.055 56.480,203.739 57.800 C 203.053 60.659,200.236 69.417,198.207 75.000 C 195.598 82.178,194.083 85.863,190.859 92.881 C 190.181 94.355,189.369 96.179,189.053 96.934 C 186.605 102.793,179.354 113.025,174.054 118.100 C 167.857 124.032,167.818 125.599,173.703 132.360 C 178.596 137.982,181.660 139.947,188.717 141.989 C 193.371 143.336,194.174 144.904,192.203 148.794 C 186.825 159.407,169.948 171.275,142.105 184.023 C 128.483 190.260,128.332 189.720,145.261 195.346 C 169.641 203.448,188.714 212.939,198.305 221.740 C 202.429 225.525,203.361 225.612,209.683 222.806 C 226.509 215.338,246.183 192.752,257.914 167.437 C 262.463 157.621,265.964 145.555,267.676 133.800 C 268.580 127.587,268.298 109.616,267.211 104.200 C 266.725 101.780,266.082 98.392,265.781 96.670 C 265.138 92.983,265.049 92.654,263.714 89.000 C 261.125 81.915,260.608 82.218,249.385 97.400 C 246.108 101.833,243.483 104.400,242.227 104.400 C 240.974 104.400,240.918 104.156,240.626 97.400 C 240.192 87.392,238.583 81.227,233.996 72.000 C 226.772 57.469,211.252 40.005,208.239 43.018 M183.345 62.100 C 182.678 62.815,181.047 64.750,179.719 66.400 C 168.462 80.395,155.221 89.136,139.689 92.826 C 132.865 94.448,132.343 94.741,130.214 98.156 C 125.487 105.741,121.571 116.488,120.440 124.983 C 119.452 132.409,119.184 132.716,114.056 132.286 C 110.538 131.991,107.260 130.718,104.747 128.671 C 101.462 125.995,101.279 125.894,100.213 126.161 C 98.459 126.601,96.316 134.122,95.190 143.791 C 93.462 158.614,100.359 176.940,102.963 164.448 C 105.012 154.623,108.524 151.985,115.221 155.244 C 133.096 163.942,152.789 163.228,163.438 153.495 C 166.672 150.540,166.537 149.935,161.873 146.475 C 153.342 140.147,150.512 133.285,150.862 119.779 C 151.031 113.221,151.243 112.695,154.554 110.600 C 168.306 101.900,174.729 95.803,180.469 86.000 C 187.445 74.085,189.708 55.276,183.345 62.100 M284.167 114.594 C 283.593 115.471,283.568 116.121,283.958 120.115 C 284.998 130.769,283.930 148.344,281.813 155.400 C 281.285 157.160,280.487 160.040,280.039 161.800 C 278.473 167.962,274.763 177.086,271.439 182.951 C 270.208 185.124,269.199 187.014,269.198 187.151 C 269.198 187.288,268.026 189.200,266.596 191.400 C 262.038 198.408,263.495 198.861,275.864 194.282 C 301.566 184.767,315.695 171.706,315.765 157.400 C 315.810 148.090,312.532 143.644,308.657 147.759 C 304.895 151.753,304.176 151.275,303.595 144.394 C 302.978 137.090,301.020 131.598,296.580 124.721 C 293.482 119.922,286.912 113.600,285.022 113.600 C 284.910 113.600,284.525 114.047,284.167 114.594 M85.536 175.964 C 82.935 178.011,78.512 191.292,76.375 203.476 C 75.742 207.085,75.101 210.254,74.950 210.519 C 74.799 210.783,73.807 212.187,72.746 213.638 C 69.505 218.068,69.219 219.005,69.209 225.200 C 69.203 229.681,70.700 248.321,71.410 252.600 C 71.520 253.260,71.884 257.310,72.220 261.600 C 73.810 281.913,75.259 287.330,80.180 291.362 C 84.137 294.605,85.387 294.783,97.314 293.807 C 108.351 292.903,108.477 292.777,107.460 283.676 C 107.098 280.444,106.527 274.380,106.190 270.200 C 105.853 266.020,105.231 259.180,104.807 255.000 C 104.383 250.820,103.751 244.250,103.402 240.400 C 103.054 236.550,102.281 228.900,101.684 223.400 C 100.328 210.890,100.299 205.770,101.560 201.429 C 102.863 196.946,102.660 196.231,98.969 192.288 C 95.726 188.823,91.731 183.029,89.421 178.442 C 88.279 176.174,87.438 175.200,86.621 175.200 C 86.559 175.200,86.071 175.544,85.536 175.964 M319.600 185.882 C 319.270 186.003,317.158 187.345,314.908 188.865 C 312.657 190.386,308.804 192.658,306.346 193.915 C 300.383 196.964,300.569 196.618,300.036 205.600 C 299.795 209.670,299.337 214.710,299.018 216.800 C 298.700 218.890,298.065 225.010,297.607 230.400 C 297.150 235.790,296.422 243.440,295.988 247.400 C 295.555 251.360,294.833 259.280,294.384 265.000 C 293.934 270.720,293.401 276.480,293.199 277.800 C 291.970 285.806,292.274 289.100,294.337 290.167 C 295.818 290.933,311.050 292.559,313.796 292.244 C 322.091 291.293,326.983 283.984,328.004 271.021 C 328.230 268.150,328.856 261.840,329.395 257.000 C 329.934 252.160,330.569 245.590,330.806 242.400 C 331.043 239.210,331.498 233.388,331.818 229.462 C 332.863 216.640,332.565 214.333,329.224 209.400 C 326.454 205.312,326.468 205.351,325.593 199.124 C 324.023 187.966,322.587 184.792,319.600 185.882 M111.200 212.400 C 110.077 213.523,110.172 214.181,112.140 218.878 C 113.097 221.162,114.111 224.014,114.395 225.215 C 114.678 226.417,115.261 228.300,115.690 229.400 C 116.735 232.081,119.464 244.379,120.178 249.624 C 120.314 250.626,120.680 255.936,120.990 261.424 C 121.702 274.035,122.019 275.165,129.995 293.600 C 137.602 311.182,143.289 319.705,155.723 332.157 C 177.194 353.661,185.442 357.396,205.636 354.761 C 212.641 353.847,212.528 352.899,203.919 340.348 C 190.610 320.943,185.613 289.312,192.174 266.000 C 192.701 264.130,193.432 261.100,193.799 259.266 C 194.166 257.432,194.812 254.929,195.233 253.703 C 197.030 248.481,196.180 247.265,185.200 239.355 C 167.516 226.616,147.582 217.341,130.324 213.823 C 118.613 211.435,112.612 210.988,111.200 212.400 M247.200 248.214 C 234.080 250.873,210.000 264.113,210.000 268.667 C 210.000 272.847,219.474 277.970,227.800 278.292 C 238.076 278.689,244.636 273.714,252.709 259.400 C 259.574 247.230,258.891 245.845,247.200 248.214 M142.400 248.211 C 151.728 249.703,163.173 254.819,174.931 262.753 C 182.821 268.078,182.583 271.132,173.949 275.348 C 160.950 281.696,149.873 277.157,140.737 261.739 C 132.950 248.598,133.179 246.736,142.400 248.211 " stroke="none" fill="#87e2f0" fill-rule="evenodd"></path><path id="path1" d="M0.000 200.000 L 0.000 400.000 200.000 400.000 L 400.000 400.000 400.000 200.000 L 400.000 0.000 200.000 0.000 L 0.000 0.000 0.000 200.000 M211.444 43.435 C 218.042 47.825,228.671 61.288,233.996 72.000 C 238.583 81.227,240.192 87.392,240.626 97.400 C 240.918 104.156,240.974 104.400,242.227 104.400 C 243.483 104.400,246.108 101.833,249.385 97.400 C 260.608 82.218,261.125 81.915,263.714 89.000 C 265.049 92.654,265.138 92.983,265.781 96.670 C 266.082 98.392,266.725 101.780,267.211 104.200 C 268.298 109.616,268.580 127.587,267.676 133.800 C 264.774 153.730,258.749 168.851,245.843 188.594 C 235.699 204.111,221.468 217.575,209.683 222.806 C 203.361 225.612,202.429 225.525,198.305 221.740 C 188.714 212.939,169.641 203.448,145.261 195.346 C 128.332 189.720,128.483 190.260,142.105 184.023 C 169.948 171.275,186.825 159.407,192.203 148.794 C 194.174 144.904,193.371 143.336,188.717 141.989 C 181.660 139.947,178.596 137.982,173.703 132.360 C 167.818 125.599,167.857 124.032,174.054 118.100 C 179.354 113.025,186.605 102.793,189.053 96.934 C 189.369 96.179,190.181 94.355,190.859 92.881 C 194.083 85.863,195.598 82.178,198.207 75.000 C 200.236 69.417,203.053 60.659,203.739 57.800 C 204.055 56.480,204.861 53.510,205.529 51.200 C 206.198 48.890,206.942 46.243,207.183 45.318 C 207.978 42.266,209.005 41.812,211.444 43.435 M186.810 61.826 C 188.273 65.673,184.947 78.351,180.469 86.000 C 176.680 92.472,174.094 95.556,168.000 100.872 C 163.911 104.440,161.257 106.360,154.554 110.600 C 151.243 112.695,151.031 113.221,150.862 119.779 C 150.512 133.285,153.342 140.147,161.873 146.475 C 166.537 149.935,166.672 150.540,163.438 153.495 C 152.789 163.228,133.096 163.942,115.221 155.244 C 108.524 151.985,105.012 154.623,102.963 164.448 C 101.548 171.233,98.384 169.105,96.053 159.800 C 93.541 149.776,96.342 127.133,100.213 126.161 C 101.279 125.894,101.462 125.995,104.747 128.671 C 107.260 130.718,110.538 131.991,114.056 132.286 C 119.184 132.716,119.452 132.409,120.440 124.983 C 121.571 116.488,125.487 105.741,130.214 98.156 C 132.343 94.741,132.865 94.448,139.689 92.826 C 148.022 90.847,157.474 86.721,162.798 82.741 C 166.964 79.626,176.447 70.468,179.719 66.400 C 184.497 60.460,185.937 59.531,186.810 61.826 M286.513 114.150 C 288.319 114.922,294.327 121.231,296.580 124.721 C 301.020 131.598,302.978 137.090,303.595 144.394 C 304.176 151.275,304.895 151.753,308.657 147.759 C 315.609 140.377,318.718 159.012,312.329 169.767 C 307.353 178.142,292.515 188.118,275.864 194.282 C 263.495 198.861,262.038 198.408,266.596 191.400 C 268.026 189.200,269.198 187.288,269.198 187.151 C 269.199 187.014,270.208 185.124,271.439 182.951 C 274.763 177.086,278.473 167.962,280.039 161.800 C 280.487 160.040,281.285 157.160,281.813 155.400 C 283.930 148.344,284.998 130.769,283.958 120.115 C 283.381 114.206,283.886 113.027,286.513 114.150 M87.388 175.451 C 87.747 175.589,88.662 176.935,89.421 178.442 C 91.731 183.029,95.726 188.823,98.969 192.288 C 102.660 196.231,102.863 196.946,101.560 201.429 C 100.299 205.770,100.328 210.890,101.684 223.400 C 102.281 228.900,103.054 236.550,103.402 240.400 C 103.751 244.250,104.383 250.820,104.807 255.000 C 105.231 259.180,105.853 266.020,106.190 270.200 C 106.527 274.380,107.098 280.444,107.460 283.676 C 108.477 292.777,108.351 292.903,97.314 293.807 C 85.387 294.783,84.137 294.605,80.180 291.362 C 75.259 287.330,73.810 281.913,72.220 261.600 C 71.884 257.310,71.520 253.260,71.410 252.600 C 70.700 248.321,69.203 229.681,69.209 225.200 C 69.219 219.005,69.505 218.068,72.746 213.638 C 73.807 212.187,74.799 210.783,74.950 210.519 C 75.101 210.254,75.742 207.085,76.375 203.476 C 78.512 191.292,82.935 178.011,85.536 175.964 C 86.648 175.090,86.532 175.122,87.388 175.451 M322.335 186.423 C 323.409 187.575,324.648 192.406,325.593 199.124 C 326.468 205.351,326.454 205.312,329.224 209.400 C 332.565 214.333,332.863 216.640,331.818 229.462 C 331.498 233.388,331.043 239.210,330.806 242.400 C 330.569 245.590,329.934 252.160,329.395 257.000 C 328.856 261.840,328.230 268.150,328.004 271.021 C 326.983 283.984,322.091 291.293,313.796 292.244 C 311.050 292.559,295.818 290.933,294.337 290.167 C 292.274 289.100,291.970 285.806,293.199 277.800 C 293.401 276.480,293.934 270.720,294.384 265.000 C 294.833 259.280,295.555 251.360,295.988 247.400 C 296.422 243.440,297.150 235.790,297.607 230.400 C 298.065 225.010,298.700 218.890,299.018 216.800 C 299.337 214.710,299.795 209.670,300.036 205.600 C 300.569 196.618,300.383 196.964,306.346 193.915 C 308.804 192.658,312.657 190.386,314.908 188.865 C 320.318 185.211,320.998 184.987,322.335 186.423 M121.324 212.196 C 143.682 215.566,164.412 224.380,185.200 239.355 C 196.180 247.265,197.030 248.481,195.233 253.703 C 194.812 254.929,194.166 257.432,193.799 259.266 C 193.432 261.100,192.701 264.130,192.174 266.000 C 185.613 289.312,190.610 320.943,203.919 340.348 C 212.528 352.899,212.641 353.847,205.636 354.761 C 185.442 357.396,177.194 353.661,155.723 332.157 C 143.289 319.705,137.602 311.182,129.995 293.600 C 122.019 275.165,121.702 274.035,120.990 261.424 C 120.680 255.936,120.314 250.626,120.178 249.624 C 119.464 244.379,116.735 232.081,115.690 229.400 C 115.261 228.300,114.678 226.417,114.395 225.215 C 114.111 224.014,113.097 221.162,112.140 218.878 C 109.044 211.489,110.346 210.541,121.324 212.196 M256.577 248.089 C 257.860 249.920,255.538 255.363,249.279 265.200 C 240.695 278.693,226.792 282.357,214.892 274.263 C 207.853 269.476,208.356 267.822,219.000 260.741 C 233.309 251.222,253.913 244.285,256.577 248.089 M136.089 248.223 C 134.246 249.514,135.286 252.540,140.737 261.739 C 149.873 277.157,160.950 281.696,173.949 275.348 C 180.288 272.252,182.264 268.875,179.345 266.123 C 176.544 263.481,166.805 257.408,159.600 253.811 C 151.362 249.699,138.386 246.614,136.089 248.223 " stroke="none" fill="#0c0c0c" fill-rule="evenodd"></path></g></svg>